<svg version="1.1" id="レイヤー_1" xmlns="http://www.w3.org/2000/svg" x="0" y="0" viewBox="0 0 153 168" xml:space="preserve"><style>.st1{fill:#b71c1f}</style><path fill="#df3337" d="M153 168H0L-.07.23H153z"/><path class="st1" d="M143.62 130.11c-.69-27.51-1.18-55.03-2.02-82.54-.27-8.84-1.41-17.65-2.15-26.48-.01 42.71-3.81 32.75-3.52-14.93.01-1.98-.16-3.96-.24-5.94h-.75c-.25 33.79-.5 67.58-.77 101.38-.01.82-.25 1.65-.39 2.47-.12-.83-.36-1.66-.36-2.49.22-20.25.48-40.5.69-60.75.01-1.06-.33-2.12-.51-3.18-.28.97-.73 1.92-.8 2.91-1.31 17.44-2.56 34.88-3.86 52.32-.05.69-.38 1.36-.57 2.04-.28-.84-.8-1.68-.81-2.52-.14-14.54-.23-29.07-.32-43.6-.78 33.48-10.53 66.61-10.14 49.71.17-7.43-.97-15.15.71-22.22 4.69-19.72 4.98-39.69 5.46-59.71-1.03 3.63-2.05 7.26-3.08 10.89-.57-4.61-1.34-9.22-1.64-13.85-.28-4.44-.07-8.92-.07-13.38h-2.99c-.06 25.07-.1 50.15-.21 75.22-.01 1.74-.44 3.47-.68 5.21-.19-1.8-.39-3.6-.56-5.4-.17-1.89-.31-3.79-.46-5.69-.11 1.83-.24 3.66-.33 5.5-.05.99.01 1.99-.05 2.98-.35 5.56-.73 11.11-1.1 16.67-1.77-3.17-3.54-6.34-5.31-9.52.51 21.34-4.76-35.3-4.76-84.96h-2.24c0 26.6 0 53.19-.04 79.79 0 .78-.44 1.55-.68 2.33-.46-1.06-1.29-2.11-1.32-3.18-.62-26.31-1.15-52.63-1.7-78.94h-1.5c.25 31.07.51 62.14.73 93.21.01.85-.4 1.7-.62 2.55-.26-1.06-.74-2.12-.76-3.18-.32-16.9-.57-33.8-.86-50.7-.02-1.29-.26-2.58-.39-3.87-.1 1.35-.26 2.69-.29 4.04-.3 12.55-.57 25.09-.86 37.64-.01.59-.21 1.18-.32 1.76-.11-.59-.3-1.18-.31-1.77-.31-15.87-.61-31.74-.91-47.61.03 38.98-4.51 69.32-4.55 45.51l-.87 3.15c-.14-1.14-.44-2.29-.4-3.43.43-12.32.92-24.64 1.4-36.97V39c-.38-3.24-.76-6.47-1.15-9.71-.54 3.78-1.43 7.55-1.55 11.35-.47 15-.69 30-1.04 45-.03 1.3-.4 2.59-.61 3.89-.24-1.24-.66-2.47-.7-3.71-.35-10.63-.62-21.26-.92-31.88.22 31.77-4.8 27.15-4.93-6.92-.11 10.81-.23 21.61-.35 32.42-.01.73-.15 1.45-.23 2.18-.14-.64-.39-1.29-.39-1.93-.03-26.48-.04-52.95-.05-79.43h-.75c-.27 31.93-.54 63.86-.83 95.8 0 .45-.34.91-.52 1.36-.28-.55-.55-1.1-.83-1.66-.47 12.24-1.09 24.48-1.36 36.73-.12 5.59-1.79-45.27-1.82-76.29-.21 1.09-.55 2.18-.59 3.28-.2 5.68-.32 11.36-.46 17.03-.12-5.92-.31-11.84-.34-17.76-.05-10.56.02-21.12-.03-31.68 0-.95-.56-1.9-.85-2.85-.18.94-.5 1.88-.53 2.83-.57 16.96-1.09 33.96-1.66 50.95-.04 1.16-.4 2.31-.61 3.47-.25-1.12-.71-2.24-.71-3.36-.05-25.96-.05-51.92-.07-77.88h-1.5c0 49.66-4.69 92.97-4.48 64.96-.5 9.16-1 18.32-1.51 27.48-.03.58-.25 1.15-.39 1.72-.12-.46-.33-.92-.34-1.38-.76-30.92-1.51-61.85-2.25-92.77h-2.24c.22 49.66-4.98 60.27-1.32 15.97.44-5.28-.09-10.65-.18-15.97h-2.99c-.29 30.69-.58 61.37-.88 92.06 0 .39-.23.77-.35 1.15-.06-.48-.18-.97-.18-1.45-.06-16.9-.11-33.8-.17-50.71 0-.48-.12-.97-.18-1.45-.14.49-.38.99-.4 1.48-.54 17-1.05 34-1.61 51-.04 1.14-.49 2.26-.74 3.39-.32-1.14-.96-2.28-.91-3.4 1.27-30.7 2.61-61.39 3.94-92.08h-4.49c2.81 25.24-4.37 49.6-6.64 74.39-.04.41-.35.79-.54 1.19-.12-.46-.32-.93-.33-1.39-.22-6.82-.39-13.65-.63-20.47-.09-2.5-.33-4.99-.5-7.49-.11 2.46-.14 4.93-.35 7.39-.62 7.23-1.32 14.46-1.99 21.69-.27-6.97-.56-13.93-.79-20.9-.31-9.42-.57-18.84-.85-28.26-.46 40.95-4.69 70.33-4.46 44.07-1.11-10.19-2.52-20.36-3.27-30.58-.96-13.19-1.4-26.42-2.07-39.64h-2.24c.39 19.43.78 38.86 1.18 58.29l.3 14.88c.61 25.27-3.5-23.51-3.72-73.17h-1.5C9.56 26.79 9.05 53.36 8.5 79.92c-.02.78-.42 1.56-.64 2.34-.27-.86-.75-1.71-.77-2.57-.29-16.51-.53-33.02-.81-49.53-.01-.76-.26-1.52-.39-2.27-.07.73-.18 1.46-.2 2.19-.3 18.12-.65 36.24-.84 54.37-.03 3.33-1.28 5.57-4.85 6.08V168h147.6c.21-11.44.47-23.49.68-34.93-2.61.67-4.59.08-4.66-2.96zm-81.45-43.7c.08.21.15.42.23.63-.07.34-.19.64-.3.95-.12-.28-.33-.57-.32-.85 0-.24.25-.48.39-.73z"/><path d="M124.56 168h-8.97c.54-22.96 1.07-45.93 1.6-68.89.17-7.43-.97-15.15.71-22.22 4.69-19.72 4.98-39.69 5.46-59.71.03-1.36.07-2.72.1-4.08.37-4.09.73-8.17 1.1-12.26h2.99c-.07 16.19-.14 32.38-.22 48.57-.92 39.53-1.85 79.06-2.77 118.59zM74.47.84h5.23c-2.45 13.19-2.03 26.4-.13 39.61.01.97.02 1.94.04 2.91 0 1.51 0 3.02.01 4.53.02 2.22.03 4.43.05 6.65l.78 113.48h-5.23l-.48-120.4L74.47.84zm32.42 84.96c.66 27.4 1.31 54.8 1.97 82.2h-6.73V.84h1.5c.16 4.02.33 8.04.49 12.05l.99 32.84c.4 8.7.81 17.4 1.21 26.1l.57 13.97zM60.26.84V168h-5.23l.75-102.21c.25-21.65.5-43.3.74-64.96 1.25.01 2.5.01 3.74.01zM90.07 32.9c.03 45.03.07 90.07.1 135.1h-4.49c-.05-29.86-.11-59.72-.16-89.59.04-12.41.08-24.83.11-37.25v-1.58c.02-12.92.03-25.83.05-38.75h2.99c.35 4.84.71 9.68 1.06 14.52.11 5.86.23 11.7.34 17.55zM12.41 168L11.66.84h2.24c.39 19.43.78 38.86 1.18 58.29l.3 14.88c.75 31.33 1.51 62.66 2.26 93.99h-5.23zm136.5-66.78c-.17-33.66-.35-67.33-.52-100.99 1.25.02 4.05 0 4.61 0-.05 1.46-.2 115.28 0 167.77h-5.4c.21-11.44.47-23.49.68-34.93.08-4.52.16-9.04.25-13.56.12-6.09.25-12.19.38-18.29zM49.05.84L49.8 168h-4.49c-.1-50.41-1.74-100.84 2.42-151.19.44-5.28-.09-10.65-.18-15.97h1.5zm89.71 0l.78 20.87-.03 146.3h-4.49c.33-53.74.67-107.49.99-161.23.01-1.98-.16-3.96-.24-5.94h2.99zM20.64 168c.28-32.31.57-64.63.85-96.94.02-.53.04-1.05.05-1.58.43-10.93.85-21.86 1.28-32.8L22.88.83h2.24c.28 8.72.55 17.43.83 26.15C25.43 73.99 24.9 121 24.37 168h-3.73zM70.7 95.73c-.47 12.24-1.09 24.48-1.36 36.73-.26 11.64-.15 23.29-.2 34.94h-1.5l-.12-111.23.12-55.94h2.24l.57 1.65.03 4.18.03 2.5c0 .42 0 .84.01 1.26-.01.82-.01 1.64-.02 2.46 0 1.92 0 3.84-.01 5.75l.18 43.43c0 2.71.01 5.42.01 8.14-.01 1.02-.02 2.04-.02 3.06.02 7.69.03 15.38.04 23.07z" fill="#610a0b"/><path class="st1" d="M114 .23c-.75 12.63-1.49 25.27-2.31 37.89-.06.92-.76 1.79-1.16 2.68-.33-.87-.93-1.74-.95-2.62-.32-12.65-.56-25.31-.82-37.96 1.75.01 3.49.01 5.24.01zm17.94 0c-.65 8.19-1.31 16.38-1.96 24.57-.59-8.19-1.19-16.38-1.78-24.57h3.74zm-51.59 0l-.87 39.61c-1.9-13.21-2.32-26.41.13-39.61h.74zM4.84.23L4.3 22.48C3.98 15.06 3.67 7.65 3.35.23h1.49zm80 0c-.18 6.45-.36 12.9-.53 19.35L84.1.23h.74zm4.49 0c.11 4.84.21 9.68.32 14.52-.36-4.84-.71-9.68-1.06-14.52h.74zm34.03 12.25c.12-4.09.23-8.17.35-12.26h.75c-.36 4.09-.73 8.18-1.1 12.26zM143.9.23c-.47 1.97-.94 3.94-1.42 5.91-.28-1.97-.55-3.94-.83-5.91h2.25zM20.54.23c-.41 1.17-.82 2.33-1.24 3.5-.58-1.17-1.17-2.33-1.75-3.5h2.99zm83.74 0c-.08 4.02-.17 8.04-.25 12.05-.17-4.02-.33-8.04-.5-12.05h.75zm-33.65 0c-.06.55-.12 1.1-.17 1.65L69.89.23h.74zm78.28 100.99l-.39 18.29.39-18.29zM79.52 42.74c0 1.51.01 3.02.01 4.53-.01-1.51-.01-3.02-.01-4.53zm25.5 2.38c.4 8.7.81 17.4 1.21 26.11-.41-8.71-.81-17.41-1.21-26.11zM21.44 68.88c.43-10.93.85-21.86 1.28-32.8-.42 10.93-.85 21.86-1.28 32.8zM5.95 22.77l-.09-.28.23.04zm64.56-4.74l.18 43.43-.18-43.43zm.19 51.56c-.01 1.02-.02 2.04-.02 3.06 0-1.02.01-2.04.02-3.06zm-.21-63.53zm.04 3.76c-.01.82-.01 1.64-.02 2.46.01-.82.02-1.64.02-2.46z"/></svg>