<svg version="1.1" id="レイヤー_1" xmlns="http://www.w3.org/2000/svg" x="0" y="0" viewBox="0 0 841.9 595.3" xml:space="preserve"><style>@keyframes full{0%{stroke-dashoffset:2600px}45%{stroke-dashoffset:0}}@keyframes full_fuutou{0%,44%{opacity:0}80%{opacity:.9}}@keyframes scalekatamuki{0%,35%{transform:rotate(0deg) scale(1);opacity:1}65%{transform:rotate(-8deg) scale(.8);opacity:.8}}</style><path d="M795.4 475.2L110 571.6c-8 1.1-15.4-4.4-16.5-12.4L34.1 136.6c-1.1-8 4.4-15.4 12.4-16.5l685.4-96.3c8-1.1 15.4 4.4 16.5 12.4l59.4 422.5c1.1 8-4.4 15.4-12.4 16.5z" style="animation:full_fuutou 8s infinite" fill="#fff"/><g style="animation:scalekatamuki 8s infinite;transform-origin:center"><g mask="url(#clip_line)"><path d="M214.8 203.4c0 3.2-1.9 6.4-5.8 9.7l-1.9-1.2-3.9 2.2-4.8-9.4c-.3-2.4-1-4.4-1.9-6l-1.5.7-4.1-2.2-1.5-.2-3.1 1.9-5.1-1.5-1.7.7c-1.4 1.6-2.9 2.4-4.3 2.4-.6 0-1.2-.1-1.7-.2l-.1 2.4c-1.6 2.6-3.6 5.7-6 9.4-.2 1.6-.7 4.6-1.7 8.9l-2.2 1.4-1 2.7-1.2 2.2 1.2 4.8-2.8 4.4-.9 3.6-.8 1.9v3.4l-3.4 8.7.5 4.1c-.2.6-1 2.9-2.7 6.8l-.2 1c1.6-.6 3-1 4.1-1.2h12.5l.7-.5c1.9-.3 3-.5 3.4-.5 1.6 0 3.4.3 5.3 1h10.6l3.1.7c5.8.2 8.7 2.5 8.7 7.1 0 1.3-.2 2.9-.7 4.7l-10.9 3.2-6.3-1c-1.8.6-4.8 1.3-8.9 2.2l-1.2-1.7c-1.1 1.1-2.7 1.7-4.6 1.7h-2.7l-6.8 3.1-3.4-1.7h-1.2c-1.3 1.6-2.9 2.7-4.8 3.1l.2 1.4-1 3.4 1.5 4.1-3.1 6.3.8 9.7-1.4 3.3 1.3 3.4-2.9 5.3.7 2.9c.2.2.2.6.2 1.2 0 .2-.3 1.9-1 5.2-.6 3.3-1 6.6-1 9.8v2.2c.2.2 1 1.2 2.7 3.1l-1.7 4.1 1.7 4.8-.7 3.9 2.5 11.8.7 13.1 3.6 4.8-2.2 5.3c1.9 3.4 2.9 6.1 2.9 8.2v.7c0 .3.1.7.2 1.2v1.2c0 6.1-3.5 9.3-10.6 9.7l-1.9-3.9-2.9-1.7-.5-4.3-4.8-13.5v-2.7c-.6-2.9-1-4.6-1-5.1 0-.8.1-1.4.2-1.7l-1-4.1 1-4.1-1-2.7v-5.3l-1.9-15.2v-6.6l-1.5-3.1 1.5-2.7V327l1.2-1.4v-8.7l.7-1.9-.7-7.5 1-2.9c.3-2.7 1.3-8.9 2.9-18.4h-1l-3.1-1h-3.6l-6.8 1-4.1-1-7 1.5-2.4-.5c-.8.2-1.8.2-2.9.2-7.1-3.2-10.9-5.7-11.4-7.5l-1.2-4.1c2.1-6.3 5-9.4 8.7-9.4.2 0 2.9.6 8.2 1.7l14 .5 6.8-1.2h5.8l2.2.2.7-3.1.5-7 1.2-2.9-.7-4.8c0-1.8.6-3.3 1.9-4.6v-2.7l2.5-2.9 1.1-7.2.9-1.2-.7-3.1c1.9-2.3 2.9-4.1 2.9-5.6l-.2-1.4c0 1.3 1.2-2.4 3.6-11.1l1.7-1.2v-5.3l.7 1.2v-.7c0-2.7 1.1-4.7 3.4-6l1.4-2.2 2.9-7h.5c1.8 0 2.7-1 2.7-3.1v-1l6.8-2.4h1.9c2.1-.6 4.3-1 6.5-1h1.7l1.2-.5 5.3-1.2 6.3 1.4c.3.2 1 .4 1.9.7 1.6-.6 2.7-1 3.4-1 2.3 0 4.3 1.7 6.3 5.1l3.4 2.4 2.4 4.8 3.6 3.6 1 6.8v1zm125.7 130.2c0 1.9-1.5 4.3-4.3 7l-1.9.7-1.7 2.2-4.4 1.2c-.8 1.1-1.6 1.7-2.4 1.7-.2 0-.3-.1-.5-.2h-.7c-3.5 1.8-7.8 2.7-12.8 2.7h-1.9l-6-1.2-4.1-1.9-9.2-7.7-1.9-6.5-3.9-3.1c.5-.6.7-1.7.7-3.1 0-1-.6-2.6-1.9-4.8l.7-5.8v-1c0-1.9-.6-4.4-1.7-7.5l1.5-7.2-3.1 6.3-3.6.5-.5 5.1c-1.3.6-2.8 1-4.6 1l-2.7 5.8-3.1 3.6c-1.3 1.5-2.4 2.3-3.4 2.4l-.7.5-8.7 8.9h-1l-4.6 5.5-4.4 2.2-2.4 3.2-5.6 1.7-8 3.2-4.8-2.4c-3.2 0-5.5-1.5-6.8-4.4l-2.2-1.2c0-.5.1-1.1.2-2v-1.7l-3.9-3.4 1-1.5-2.9-6.8 1-1v-2c-.5-.5-.7-.9-.7-1.2 0-1.8.2-3.5.5-5.1l.2-6.4-.7-5.1c.5-1.3.7-2.4.7-3.4 0-1.1-.3-2.2-1-3.1l2.7-1.9v-2.9l-1-8 2.7-15.5c0-2.6-.7-6.4-2.2-11.4.5-5.2 3.9-8 10.1-8.5l1.9.7 3.4.5 4.4 4.8-1.9 6.3v10.4l.7 8-1.5 2.9.7 1.9-1.9 3.9v5.3c0 2.1-.2 4.3-.5 6.5l.5 1.7-.5 3.6.4 2.8.1 3.4c1.3 1 1.9 2.2 1.9 3.6 0 1.3-.6 2.6-1.9 3.9v1c.8 2.7 1.3 4.5 1.3 5.3l2.3 2.2c1-.6 2.2-1.5 3.5-2.4.5-1.6 1.7-2.7 3.5-3.1v-2.4c1 0 2.5-.2 4.6-.7l.5-2.2 4.1-1.7.7-.7c1.1-1.1 3-2.2 5.6-3.1v-1l4.6-3.4c1.1-3.1 3.1-5.1 6-6 1.8-1.8 3-2.8 3.6-3.1l3.1-4.1v-.9l1-.5 2.2-1 1.2-3.4 5.1-2.2 1-.2 1.7-1.7v-2.2l1.4-.5c.5-2.6 1.7-4.5 3.8-5.8l3.5-8.2 1.4-4.3.5-.9h1l1.7-1.2-1.5-.5c1.8-2.9 3.1-6 4.1-9.2l7-.2 5.6 4.6 2.4 3.9-2.7 10.4-3.6 4.8-2.9 9.4-2.4 1.5v3.6l-1.5 2.7.7 4.3-1.9 1.7 1 7.7.5 10.9h1.2v6.3l3.4 4.1 3.1 1.7.2 1.2c1.1.2 2.5.6 4.1 1.2l6 .5 3.6-1 6.5-3.1c1.3-.6 2.9-1 4.8-1 5.1 0 7.5 2.1 7.5 6.2zm149.3 0c0 1.9-1.4 4.3-4.3 7l-1.9.7-1.7 2.2-4.4 1.2c-.8 1.1-1.6 1.7-2.4 1.7-.2 0-.3-.1-.5-.2h-.7c-3.5 1.8-7.8 2.7-12.8 2.7h-1.9l-6-1.2-4.1-1.9-9.2-7.7-1.9-6.5-3.9-3.1c.5-.6.7-1.7.7-3.1 0-1-.6-2.6-1.9-4.8l.7-5.8v-1c0-1.9-.6-4.4-1.7-7.5l1.5-7.2-3.1 6.3-3.6.5-.5 5.1c-1.3.6-2.8 1-4.6 1l-2.7 5.8-3.1 3.6c-1.3 1.5-2.4 2.3-3.4 2.4l-.7.5-8.7 8.9h-1l-4.6 5.5-4.4 2.2-2.4 3.2-5.6 1.7-8 3.2-4.8-2.4c-3.2 0-5.5-1.5-6.8-4.4l-2.2-1.2c0-.5.1-1.1.2-2v-1.7l-3.9-3.4 1-1.5-2.9-6.8 1-1v-2c-.5-.5-.7-.9-.7-1.2 0-1.8.2-3.5.5-5.1l.2-6.4-.7-5.1c.5-1.3.7-2.4.7-3.4 0-1.1-.3-2.2-1-3.1l2.7-1.9v-2.9l-1-8L362 270c0-2.6-.7-6.4-2.2-11.4.5-5.2 3.9-8 10.1-8.5l1.9.7 3.4.5 4.4 4.8-1.9 6.3v10.4l.7 8-1.5 2.9.7 1.9-1.9 3.9v5.3c0 2.1-.2 4.3-.5 6.5l.5 1.7-.5 3.6.4 2.8.1 3.4c1.3 1 1.9 2.2 1.9 3.6 0 1.3-.6 2.6-1.9 3.9v1c.8 2.7 1.3 4.5 1.3 5.3l2.3 2.2c1-.6 2.2-1.5 3.5-2.4.5-1.6 1.7-2.7 3.5-3.1v-2.4c1 0 2.5-.2 4.6-.7l.5-2.2 4.1-1.7.7-.7c1.1-1.1 3-2.2 5.6-3.1v-1l4.6-3.4c1.1-3.1 3.1-5.1 6-6 1.8-1.8 3-2.8 3.6-3.1l3.1-4.1v-.9l1-.5 2.2-1 1.2-3.4 5.1-2.2 1-.2 1.7-1.7v-2.2l1.4-.5c.5-2.6 1.7-4.5 3.8-5.8l3.5-8.2 1.4-4.3.5-.9h1l1.7-1.2-1.4-.5c1.8-2.9 3.1-6 4.1-9.2l7-.2 5.6 4.6 2.4 3.9-2.7 10.4-3.6 4.8-2.9 9.4-2.4 1.5v3.6l-1.5 2.7.7 4.3-1.9 1.7 1 7.7.5 10.9h1.2v6.3l3.4 4.1 3.1 1.7.2 1.2c1.1.2 2.5.6 4.1 1.2l6 .5 3.6-1 6.5-3.1c1.3-.6 2.9-1 4.8-1 5 0 7.4 2.1 7.4 6.2zm168.7-25.1c0 1.3-1.1 3-3.1 5.1l-2.7 4.1-1 4.8-2.2.7-.5 1.5c-2.6.8-4.4 2.8-5.6 6-1.8 2.3-3.7 3.9-5.8 4.8-.8.8-1.5 1.4-2.2 1.7l-1.2 2.2-2.2.5-6.3 3.4-8.2 1-2.2-.5-3.6.7-1.4-1.7c-2.3-1.1-3.9-2.3-4.8-3.4-1.9-.5-3.4-2-4.4-4.6-2.7-3.2-4.1-5.8-4.1-7.7v-.7l-1.7-2.9-.5-.5-1.5-4.3-2.2-4.6.5-5.6-2.4-3.1-3.6-20.8c-.5-2.7-.7-5.1-.7-7l-.5-1.2-1.2-1.7-2.2 2.9-8.8 9.1-3.2 5-1.6 3.5-2.6 3.9-1.8 1.9.2 1.2-3.4 7.5-1.9 2.4-2.4.5-2.2 2.2c0 3.2-1.5 5.3-4.6 6.3l-.5.5c-1.4 3.5-3.1 5.7-4.8 6.5l-2.2 3.4c-3.5 3.2-5.9 5.2-7 6-.5 1.6-1.4 3-2.7 4.1-.3.5-.9 1.1-1.7 1.9-.5 2.7-2.7 4.7-6.8 5.8l-2.7.7c-3.2-.2-5.9-2-8-5.6l-3.6-6 1.5-5.8-.7-3.1.5-.5.2-3.1-2.7-5.8 1.9-2.9-1-3.1 1.9-3.4.5-5.6-.7-1 1.4-3.4-.5-1.7-.2-3.9.7-7.2c-.5-1.6-.7-2.7-.7-3.1v-2l-.7-1.9.7-7.7v-13.1l4.2-7.2c4.9.8 8.2 1.9 10.1 3.3 1.9 1.4 2.8 3.8 2.8 7.4v2.2l1.9 2.9-1 5.1 1 9.7-1.7 4.6.7 5.1v4.1l-2.2 2.7 2.2 4.4-1.9 2.7-.3 2.7 1.5 2.7-1.9 5.1-.7 2.2v2.2l1.2 2.4 4.1-4.1c0-2.4.8-4 2.4-4.8.2-1.6.8-2.8 1.9-3.6l-.7-.7 3.1-2.9.7-1v-2.2l3.9-2.9 1-2.4 2.2-1.4 9.4-10.6c-.8 1-3.5 3.9-8 8.9v.5l.5-1.7 3.1-3.6 2.2-4.1v-2.4l3.6-1.2.5-3.1 1-1 .2-1.2v-1.7l3.4-3.4v-1.2c-.2-.5-.2-.8-.2-1 0-2.9 1.6-4.5 4.8-4.8 1.5-2.9 3.6-4.6 6.5-5.1l1.5-2.2.5-.5c1.4-2.1 3.6-3.5 6.5-4.3l2.2-2.7h5.8l2.9 3.4 2.7 1.4.2.7 1.7.5.5 5.1 4.1 2.4-1.7 5.3 2.7 5.8v6.8l1.9 9.2.5 8.7 2.2 5.1 1.4 6.3c1 1 1.7 2.3 2.2 4.1l4.3 1.2v4.8l2.4 2.7v.7l1 .2 1 1.4 1-1.2c-.3 0 .1.1 1.2.2 1.8 0 3.6-1.6 5.6-4.8l2.9-.6.7-1.2c.5-1.3 1.4-2.3 2.9-2.9l1.7.2 1-1 .2-1.2.7-1c1.6-1.1 2.7-2.8 3.1-5.1l2.7-2.9.5-2.2 1.7-3.9 4.6-1.7 6.5 2.2 2.2 7c0 .2.1.3.2.5.3-.1.3.2.3.3zm93-17.4l-1.4 4.3c0 4.2-.2 7.5-.7 9.9l-1.4 2.4v2.7l-1.2 1.7-.7 3.4-2.7 2.7-1.7 6-1.9.7-1 2.7-2.9 1.7-1.9 4.1-2.9 1.4-.2 2.9-4.6 1.7c-2.1 2.9-4.7 4.8-7.7 5.6l-1 .2c-2.3 3.4-5.2 5.1-8.9 5.1-1.6 1-3.5 1.4-5.6 1.4l-2.4 1.7-2.4.7-3.1 2.4h-3.1l-3.4.7-4.1-1.7-10.4-.7-3.6-5.6-5.3-5.6 1.2-3.9-3.6-8.2 1.2-3.1-.7-5.8.7-3.6v-4.8c0-3.1.8-5.3 2.5-6.8.2-1.6 1.3-4.3 3.3-8h1.3l-.7-1.7.7-3.4v-3.6c1.3-1.4 2-2.4 2.2-2.9l-.7-3.4v-1c1.1-2.3 1.7-4.6 1.7-7l5.1-7c.8-.6 1.4-1.1 1.7-1.4l-.2-1h1l3.6-4.1.2-5.6 6-2.2c2.3-1.4 3.7-3.9 4.3-7.2h3.1c1.8-1 3.4-1.5 4.8-1.5s2.8.3 4.1 1l2.7.2 6.3-2.4 3.4 3.1 2.7 1.7h1.9l3.6 1.9h1.9c2.1 1.9 4.5 4.6 7.2 8l.5 1.2 1.7 1 5.1 6.5 4.6 11.4v2.4l1.8 8.7zm-15.9 5.7l-.2-1.2c-1.1-1.1-1.8-2.3-1.9-3.6l.7-1.2-2.2-4.6.5-4.6-1-1.2c-2.1-1.6-3.2-2.9-3.4-3.9-1.4-.6-2.2-2.3-2.2-4.8l-1.5-.2-2.9-4.8-2.2-1.7-5.1-1.9-1.9-.5c-1 0-1.6-.3-1.9-1l-4.8 5.3-3.1 6.7-5.1 2.6-.7 2.6-2.4 1.2-1 6.2-2.9 1.4c-.6 2.2-1 4.3-1 6.2l-3.9 3.6 1.2.7c0 1.9-.8 3.6-2.4 5-.5 1.4-1.3 3-2.2 4.8v5.8l-2.7 6.5.5 1.2v6.7l-1 3.4.2 3.4 2.2 3.1 3.4 1.2 1.2.5h8.2l1-2.4h1c1 0 1.5.2 1.7.7l2.2-.7 1.9.7 3.1-2.2.5-.7 2.2-.5c1.1-1.8 3.8-3.6 8-5.4l.5-1.2 4.8-3.4 2.7-3.9 3.9-1.9.3-1.2 1.3-2.7V312l2.9-2.4 1-1.7 1.2-1.4c-.6-1.9-1-3.3-1-4.1 0-1.4.5-3 1.4-4.6l.9-1z"/></g><mask id="clip_line"><path d="M212.9 217.2s-4.2-16.8-8.4-21.5-21-12.1-24.6-8.9c-3.7 3.1-7.1 1.1-16.4 19.4-14.1 27.6-17.2 65.1-19.3 75-2.1 10-7.3 62.4-7.3 68.2s5.8 44 7.9 51.9 15.3 10.5 9 21-67.7-6.8-69.8-43.5c-2.2-36.8-5.8-104.3 2-106.5 7.9-2.3 13.6 3.6 18.4 4.1 4.7.5 42-1 49.3-2s30.8-1 39.3-1.6 10.5-8.3 9.4-11.5c-1-3.2 3.1-25.2 10.5-23.1s8.9 14.7 9.4 21c.5 6.3-6.3 54.5-3.7 61.4 2.6 6.8 5.8 18.6 10.5 18.7 4.7.1 26.2-21.4 31.5-25.6 5.2-4.2 30.4-26.2 32-29.9 1.6-3.7 15.2-29.9 12.6-36.2-2.6-6.3-15.3 7-14.7 13.7.7 6.7.5 40.8 1.6 46.6 1 5.8 3.1 26.2 7.9 28.3 4.7 2.1 21 8.1 25.2 3 4.2-5.1 16-9.8 15.6-20.8-.4-11-18.2-62-13.5-67.2 4.7-5.2 23.4-22 30.6-17.2 7.2 4.7 12.9 21.6 12.9 27.3 0 5.7-6.3 42.4-4.7 48.2s-.1 28.1 9.4 27.7c11.3-.4 13.6-5.2 21.5-12s43.5-39.9 47.2-46.1c3.7-6.3 10.3-23.3 9.9-27.4-.4-4.1-7.2-23.5-16.1-24-8.9-.5-1.2 31.2 1 33.6 2.3 2.4 3.1 19.3 2.1 28.8-1 9.4.5 36.7 4.7 40.9 4.2 4.2 14.7 9.7 19.4 8.3 4.7-1.4 15.4-1.4 21.3-11.7 5.9-10.2.4-49.9 2.9-66.3 2.5-16.3 9-26.8 17.8-23.7 8.8 3.1 12.5 19 13 23.7.5 4.7-.8 11-2 34.6-.8 16.1-.6 43.2 1.2 43.3s7.1-2 12.3-9.3c5.2-7.3 31.1-39.8 37.8-55.7 5.4-12.9 14.1-14.9 17.3-12.9s4.2 17.8 6.3 24.1c2.1 6.3 6.8 31.5 11 36.7 4.2 5.2 5.8 15.7 13.6 13.6 7.9-2.1 25.7-21 28.8-25.7 3.1-4.7 5.7-49.8 10.7-51.4 5-1.6-21.5 63.6-21 72 .5 8.4 14.9 32.3 21 39.2 6.1 6.8 28.1-19.7 36-21.6 7.9-2 33.6-22.9 37.8-27.1 4.2-4.2 11-24.6 8.4-34.6-2.6-10-12.5-39.7-17.3-33.3-11.1 14.9-19.9-11-24.6-5.3-2.4 2.9-2.2 16.9-6.4 22.3-4.1 5.4-12 12-13.4 19.4-.9 4.8-10.7 35.1-8.1 44 2.6 8.9 20.5 25.2 27.3 25.7s29 4.7 43.1-5.2c14.1-10 10.4-18.9 26.2-17.3" style="animation:full 8s ease-in-out infinite" stroke-dasharray="2600" fill="none" stroke="#fff" stroke-width="22"/></mask></g></svg>