<svg version="1.1" id="レイヤー_1" xmlns="http://www.w3.org/2000/svg" x="0" y="0" viewBox="0 0 841.9 595.3" xml:space="preserve"><style>@keyframes full{0%{stroke-dashoffset:2600px}45%{stroke-dashoffset:0}}@keyframes scalekatamuki{0%,35%{transform:scale(1);opacity:1}65%{transform:scale(.8);opacity:0}}</style><g style="animation:scalekatamuki 8s infinite;transform-origin:center"><g mask="url(#clip_line)"><path d="M95.49 452.29c-.86-9.75-1.6-25.17-1.6-33.44 0-22.09 3.58-46.64 3.83-48.62.62-3.83 2.22-6.91 6.29-6.91 3.33 0 7.28 1.85 7.28 5.92 0 1.48-1.73 12.09-2.1 14.31-.99 6.91-2.34 21.84-2.34 35.79 0 6.91.49 22.7 1.36 29.25.37 3.46.62 5.31.62 6.17 0 4.32-3.58 6.17-6.42 6.17-6.18 0-6.43-3.95-6.92-8.64zm94.77-2.84c0 5.55-4.69 6.05-8.39 6.42-6.54.74-15.18 1.36-24.06 1.36-21.59 0-34.3-2.59-34.3-16.29 0-5.92 3.83-14.69 7.65-14.69 2.34 0 3.46 2.1 3.46 3.33 0 1.11-1.11 3.21-1.48 4.2-.37 1.11-.62 3.21-.62 4.2 0 3.46 0 9.13 21.84 9.13 9.5 0 19.37-1.48 24.06-2.34 1.23-.25 5.8-1.23 6.42-1.23 3.07-.01 5.42 2.58 5.42 5.91zm-10.49-67c-1.36 0-7.03-1.23-8.27-1.48-3.95-.62-10.86-1.48-18.39-1.48-7.65 0-15.3.99-19 1.48-.62.12-2.71.49-3.33.49-1.85 0-3.58-1.6-3.58-3.7 0-3.21 2.71-3.7 5.31-4.2 13.94-2.71 29.37-2.96 33.93-2.96 13.94 0 18.26.62 18.26 6.29.01 3.34-2.09 5.56-4.93 5.56zm68.36 80.82c0 2.84-2.1 4.94-5.68 4.94-4.57 0-5.06-2.71-5.8-6.91-1.48-7.4-8.64-40.23-10-47.02-6.42 1.97-19.5 7.16-20.48 7.16-2.1 0-3.33-2.34-3.33-3.95 0-2.1 1.23-2.71 5.55-3.95 2.71-.74 14.56-4.2 17.03-4.81-1.48-5.92-4.44-19-4.44-19.87 0-3.08 2.34-4.81 5.55-4.81 3.83 0 4.94 1.73 5.68 6.05.86 4.81 1.6 8.14 3.33 16.04 5.92-1.36 8.02-1.73 15.92-2.84 2.47-2.34 4.44-5.92 7.16-13.2 1.97-5.31 2.59-6.42 5.8-6.42 2.84 0 6.05 1.73 6.05 4.94 0 2.96-5.8 10.86-8.39 14.07 10.12.25 25.91 3.58 25.91 18.88 0 15.18-15.3 19.87-28.26 19.87-8.64 0-10.37-1.23-10.37-3.46 0-1.48.99-2.84 2.59-2.84 1.48 0 5.68.62 6.91.62 9.5 0 17.28-4.94 17.28-13.94 0-9.62-9.01-13.08-19.37-13.08-6.66 0-12.22.86-19.99 2.71.86 4.19 11.35 50.34 11.35 51.82zm155.98-54.41c4.57 0 4.57 3.83 4.57 4.2 0 .99-.37 4.32-4.69 4.32h-98.97c-4.69 0-4.69-3.83-4.69-4.2 0-2.84 1.85-4.32 4.57-4.32h99.21zm70.95-5.43c4.44 0 17.03 1.23 17.03 16.54 0 4.32-2.47 23.57-2.47 27.39 0 7.53 2.59 8.76 6.05 8.76 9.38 0 16.78-9.63 20.24-15.79 2.59-4.44 2.71-5.06 4.94-5.06 2.47 0 3.95 1.73 3.95 3.46 0 2.84-12.34 27.76-32.7 27.76-6.54 0-16.17-2.47-16.17-17.03 0-4.44 2.47-24.19 2.47-28.13 0-5.43-1.73-10.12-8.14-10.12-17.89 0-28.01 26.53-31.22 34.92-.86 2.1-3.95 11.72-4.69 13.7-.37 1.11-1.6 4.32-6.17 4.32-2.1 0-7.03-1.11-7.03-6.05 0-2.34 0-2.71 12.59-34.92 3.33-8.39 16.41-39.36 23.94-57.01 2.22-5.31 2.84-6.79 6.54-6.79 3.46 0 8.27 2.34 8.27 6.66 0 2.47-17.89 40.35-21.22 48 6.76-5.43 13.05-10.61 23.79-10.61z" fill="#48b49e"/></g><mask id="clip_line"><path d="M106.95 353.97s-17.06 95.96.29 110.35c3.2-10.96-3.72-82.3 21.7-88.39 21.93-5.25 55.62-1.22 56.18 5.02s-46.36 28.09-53.97 45.3c-6.89 15.6-10.26 24.98 23.37 25.96 23.52.69 39.91-2.24 38.21-14.17s8.15-20.09 33.52-27.84c23.05-7.04 48.35-11.54 54.54 5.68 5.83 16.23-4.92 22.16-20.75 22.16-4.34 0-7.67-2.11-6.97-4.05 3.14-8.61 34.23 3.97 27.06-49.4-2.1-15.65-9.01-7.35-15.83 5.15-6.99 16.75-17.36 16.75-17.36 16.75l.89-34.93-24.09 3.91 20.91 95.69 34.14-10.98 15.06-45.44 123.27-3.41 35.22-69.87 16.67 15.27-49.62 118.23s29.06-63.86 53.5-65.93c18.96-1.6 10.84 20.56 9.82 37-1.14 18.5 12.79 18.04 23.3 9.36 17.01-14.05 19.04-31.57 19.04-31.57" style="animation:full 8s ease-in-out infinite" stroke-dasharray="2600" fill="none" stroke="#fff" stroke-width="22"/></mask></g></svg>